<?xml version="1.0" encoding="iso-8859-1"?>
<!-- Generator: Adobe Illustrator 19.0.0, SVG Export Plug-In . SVG Version: 6.00 Build 0)  -->
<svg version="1.1" id="Capa_1" xmlns="http://www.w3.org/2000/svg" xmlns:xlink="http://www.w3.org/1999/xlink" x="0px" y="0px"
	 viewBox="0 0 511 511" style="enable-background:new 0 0 511 511;" xml:space="preserve">
<g>
	<path d="M368.803,82.197l-48.971-48.971c-5.95-5.949-13.86-9.226-22.273-9.226H267v-0.5C267,10.542,256.458,0,243.5,0
		S220,10.542,220,23.5V24h-56.5C150.542,24,140,34.542,140,47.5v24c0,12.958,10.542,23.5,23.5,23.5H220v222.859
		c-4.899,4.31-8,10.619-8,17.641v152c0,12.958,10.542,23.5,23.5,23.5h16c12.958,0,23.5-10.542,23.5-23.5v-152
		c0-7.023-3.101-13.332-8-17.641V95h96.5c3.034,0,5.768-1.827,6.929-4.63C371.59,87.567,370.948,84.342,368.803,82.197z M235,23.5
		c0-4.687,3.813-8.5,8.5-8.5s8.5,3.813,8.5,8.5V24h-17V23.5z M260,487.5c0,4.687-3.813,8.5-8.5,8.5h-16c-4.687,0-8.5-3.813-8.5-8.5
		v-152c0-4.687,3.813-8.5,8.5-8.5h16c4.687,0,8.5,3.813,8.5,8.5V487.5z M252,312.013c-0.167-0.004-0.332-0.013-0.5-0.013h-16
		c-0.168,0-0.333,0.009-0.5,0.013V95h17V312.013z M163.5,80c-4.687,0-8.5-3.813-8.5-8.5v-24c0-4.687,3.813-8.5,8.5-8.5h134.059
		c4.407,0,8.55,1.716,11.667,4.833L345.393,80H163.5z"/>
	<path d="M291.5,48h-8c-4.142,0-7.5,3.358-7.5,7.5s3.358,7.5,7.5,7.5h8c4.142,0,7.5-3.358,7.5-7.5S295.642,48,291.5,48z"/>
	<path d="M251.5,48h-56c-4.142,0-7.5,3.358-7.5,7.5s3.358,7.5,7.5,7.5h56c4.142,0,7.5-3.358,7.5-7.5S255.642,48,251.5,48z"/>
</g>
<g>
</g>
<g>
</g>
<g>
</g>
<g>
</g>
<g>
</g>
<g>
</g>
<g>
</g>
<g>
</g>
<g>
</g>
<g>
</g>
<g>
</g>
<g>
</g>
<g>
</g>
<g>
</g>
<g>
</g>
</svg>
