<?xml version="1.0" encoding="iso-8859-1"?>
<!-- Generator: Adobe Illustrator 19.0.0, SVG Export Plug-In . SVG Version: 6.00 Build 0)  -->
<svg version="1.1" id="Capa_1" xmlns="http://www.w3.org/2000/svg" xmlns:xlink="http://www.w3.org/1999/xlink" x="0px" y="0px"
	 viewBox="0 0 511 511" style="enable-background:new 0 0 511 511;" xml:space="preserve">
<g>
	<path d="M446.84,263h18.395c3.138,9.29,11.93,16,22.266,16c12.958,0,23.5-10.542,23.5-23.5S500.458,232,487.5,232
		c-10.336,0-19.128,6.71-22.266,16H446.84c-0.797-20.592-4.852-40.361-11.678-58.8l16.985-7.035
		c2.352,2.699,5.297,4.854,8.701,6.264c2.899,1.201,5.946,1.802,8.993,1.802c3.046,0,6.093-0.601,8.993-1.802
		c5.799-2.402,10.316-6.919,12.718-12.718s2.402-12.187,0-17.986c-2.402-5.799-6.919-10.316-12.718-12.718
		c-5.799-2.402-12.186-2.402-17.986,0c-5.799,2.402-10.316,6.919-12.718,12.719c-1.41,3.404-1.969,7.01-1.723,10.582l-17.008,7.045
		c-8.488-18.342-19.792-35.122-33.358-49.784l13.061-13.061c3.207,1.595,6.762,2.445,10.449,2.445
		c6.277,0,12.179-2.444,16.617-6.883c4.438-4.438,6.883-10.34,6.883-16.617c0-6.277-2.445-12.179-6.883-16.617
		c-4.438-4.438-10.339-6.883-16.617-6.883s-12.179,2.444-16.618,6.883c-7.306,7.307-8.766,18.26-4.42,27.047l-13.079,13.079
		c-14.662-13.565-31.442-24.87-49.784-33.358l7.045-17.008c0.529,0.036,1.059,0.078,1.589,0.078c3.046,0,6.093-0.601,8.993-1.802
		c5.799-2.402,10.316-6.919,12.718-12.718c2.402-5.8,2.402-12.188,0-17.986c-2.402-5.799-6.919-10.316-12.718-12.718
		c-11.971-4.959-25.745,0.746-30.704,12.718c-2.402,5.799-2.402,12.187,0,17.986c1.41,3.404,3.565,6.349,6.264,8.701L321.8,75.839
		c-18.439-6.827-38.208-10.881-58.8-11.678V45.766c9.29-3.138,16-11.93,16-22.266C279,10.542,268.458,0,255.5,0S232,10.542,232,23.5
		c0,10.335,6.71,19.127,16,22.266v18.395c-20.592,0.797-40.361,4.852-58.8,11.678l-7.035-16.984
		c2.699-2.352,4.854-5.297,6.264-8.701c2.402-5.8,2.402-12.188,0-17.986c-4.959-11.972-18.733-17.676-30.704-12.718
		c-5.799,2.402-10.316,6.919-12.718,12.718c-2.402,5.799-2.402,12.187,0,17.986c2.402,5.799,6.918,10.316,12.718,12.718
		c2.9,1.201,5.946,1.802,8.993,1.802c0.53,0,1.06-0.042,1.589-0.078l7.045,17.008c-18.342,8.488-35.121,19.792-49.784,33.358
		l-13.079-13.079c4.346-8.787,2.886-19.741-4.42-27.048c-4.438-4.438-10.34-6.883-16.617-6.883s-12.179,2.444-16.617,6.883
		c-4.438,4.438-6.883,10.34-6.883,16.617c0,6.277,2.445,12.179,6.883,16.617c4.438,4.439,10.34,6.883,16.617,6.883
		c3.687,0,7.242-0.85,10.449-2.445l13.061,13.061c-13.566,14.663-24.871,31.442-33.358,49.784l-17.009-7.045
		c0.245-3.572-0.313-7.178-1.723-10.582c-2.402-5.8-6.919-10.316-12.718-12.718c-5.799-2.402-12.187-2.402-17.986,0
		c-5.799,2.402-10.316,6.919-12.718,12.718c-2.402,5.799-2.402,12.187,0,17.986s6.919,10.316,12.718,12.718
		c2.9,1.201,5.946,1.802,8.993,1.802c3.046,0,6.093-0.601,8.993-1.802c3.404-1.41,6.349-3.565,8.701-6.264l16.985,7.035
		c-6.826,18.439-10.881,38.208-11.678,58.8H45.766c-3.138-9.29-11.93-16-22.266-16C10.542,232,0,242.542,0,255.5
		S10.542,279,23.5,279c10.336,0,19.128-6.71,22.266-16H64.16c0.797,20.592,4.852,40.361,11.678,58.8l-16.985,7.035
		c-2.352-2.699-5.297-4.854-8.701-6.264c-5.798-2.401-12.186-2.401-17.986,0c-5.799,2.402-10.316,6.919-12.718,12.718
		s-2.402,12.187,0,17.986c2.402,5.799,6.919,10.316,12.718,12.718c2.9,1.202,5.946,1.802,8.993,1.802
		c3.046,0,6.093-0.601,8.993-1.801c5.799-2.402,10.316-6.919,12.718-12.719c1.41-3.404,1.969-7.01,1.723-10.582l17.008-7.045
		c8.488,18.342,19.792,35.122,33.358,49.784L101.9,398.494c-3.207-1.595-6.762-2.445-10.449-2.445
		c-6.277,0-12.179,2.444-16.617,6.883c-4.438,4.438-6.883,10.34-6.883,16.617c0,6.277,2.445,12.179,6.883,16.617
		c4.438,4.438,10.339,6.883,16.617,6.883s12.179-2.444,16.618-6.883c7.306-7.307,8.766-18.26,4.42-27.047l13.079-13.079
		c14.662,13.565,31.442,24.87,49.784,33.358l-7.045,17.009c-3.571-0.245-7.177,0.313-10.582,1.723
		c-5.799,2.402-10.316,6.919-12.718,12.718c-2.402,5.8-2.402,12.187,0,17.987c2.402,5.799,6.919,10.316,12.718,12.718
		c2.931,1.214,5.971,1.789,8.962,1.789c9.226,0,17.997-5.467,21.742-14.507c2.402-5.799,2.402-12.187,0-17.986
		c-1.41-3.404-3.565-6.349-6.264-8.701l7.035-16.985c18.439,6.827,38.209,10.881,58.8,11.678v18.395c-9.29,3.138-16,11.93-16,22.266
		c0,12.958,10.542,23.5,23.5,23.5s23.5-10.542,23.5-23.5c0-10.336-6.71-19.128-16-22.266v-18.395
		c20.592-0.797,40.361-4.852,58.8-11.678l7.035,16.985c-2.699,2.352-4.854,5.297-6.264,8.701c-2.402,5.799-2.402,12.187,0,17.986
		c3.745,9.041,12.516,14.507,21.742,14.507c2.991,0,6.032-0.575,8.962-1.789c5.799-2.402,10.316-6.919,12.718-12.718
		c2.402-5.799,2.402-12.187,0-17.986c-2.402-5.799-6.918-10.316-12.718-12.718c-3.404-1.41-7.01-1.969-10.582-1.723l-7.045-17.009
		c18.342-8.488,35.121-19.792,49.784-33.358l13.079,13.079c-4.346,8.787-2.886,19.741,4.42,27.048
		c4.438,4.438,10.34,6.883,16.617,6.883s12.179-2.444,16.617-6.883c4.438-4.438,6.883-10.34,6.883-16.617
		c0-6.277-2.445-12.179-6.883-16.617c-4.438-4.439-10.34-6.883-16.617-6.883c-3.687,0-7.242,0.85-10.449,2.445l-13.061-13.061
		c13.566-14.663,24.871-31.442,33.358-49.784l17.009,7.045c-0.245,3.571,0.313,7.178,1.723,10.582
		c2.402,5.8,6.919,10.316,12.718,12.718c2.899,1.201,5.946,1.802,8.993,1.802c3.047,0,6.094-0.601,8.993-1.802
		c5.799-2.402,10.316-6.919,12.718-12.718c2.402-5.799,2.402-12.187,0-17.986s-6.919-10.316-12.718-12.718
		c-5.799-2.402-12.186-2.402-17.986,0c-3.404,1.41-6.349,3.565-8.701,6.264l-16.985-7.035
		C441.988,303.361,446.042,283.592,446.84,263z M461.987,163.465c0.869-2.098,2.502-3.731,4.6-4.601
		c1.049-0.435,2.151-0.651,3.252-0.651c1.102,0,2.204,0.217,3.253,0.651c2.098,0.869,3.731,2.503,4.6,4.601
		c0.869,2.098,0.869,4.408,0,6.505c-0.869,2.098-2.502,3.731-4.6,4.6c-2.097,0.869-4.407,0.869-6.505,0
		c-2.097-0.869-3.731-2.502-4.6-4.599c0,0,0,0,0-0.001v0C461.118,167.873,461.118,165.563,461.987,163.465z M336.43,37.907
		c1.794-4.33,6.776-6.394,11.105-4.6c2.098,0.869,3.731,2.502,4.601,4.6c0.869,2.098,0.869,4.408,0,6.506
		c-0.869,2.098-2.502,3.731-4.6,4.6c-2.098,0.869-4.408,0.869-6.505,0v0c-2.098-0.869-3.731-2.503-4.6-4.601
		C335.561,42.315,335.561,40.005,336.43,37.907z M158.865,44.413c-0.869-2.097-0.869-4.408,0-6.505
		c0.869-2.098,2.503-3.731,4.601-4.601c1.061-0.438,2.16-0.646,3.242-0.646c3.337,0,6.509,1.978,7.864,5.247
		c0.869,2.098,0.869,4.408,0,6.505c-0.869,2.098-2.502,3.731-4.6,4.6c-2.098,0.869-4.409,0.869-6.505,0
		C161.367,48.144,159.733,46.511,158.865,44.413z M44.413,174.57c-2.098,0.869-4.408,0.869-6.505,0s-3.731-2.502-4.6-4.6
		c-0.869-2.098-0.869-4.408,0-6.506c0.869-2.097,2.502-3.731,4.6-4.6c1.049-0.435,2.15-0.651,3.253-0.651
		c1.102,0,2.204,0.217,3.252,0.651c2.098,0.869,3.731,2.503,4.6,4.601c0.869,2.098,0.869,4.408,0,6.505v0c0,0,0,0,0,0
		C48.144,172.068,46.51,173.702,44.413,174.57z M49.013,347.535c-0.869,2.098-2.502,3.731-4.6,4.601
		c-2.098,0.869-4.408,0.869-6.505,0c-2.098-0.869-3.731-2.503-4.6-4.601c-0.869-2.098-0.869-4.408,0-6.505
		c0.869-2.098,2.502-3.731,4.6-4.6c1.049-0.435,2.151-0.652,3.253-0.652c1.102,0,2.204,0.217,3.252,0.652
		c2.097,0.869,3.731,2.502,4.6,4.599c0,0,0,0,0,0.001v0C49.882,343.127,49.882,345.438,49.013,347.535z M174.57,473.093
		c-1.793,4.331-6.776,6.395-11.105,4.6c-2.098-0.869-3.731-2.502-4.601-4.6c-0.869-2.097-0.869-4.408,0-6.506
		c0.869-2.097,2.502-3.731,4.6-4.6c1.049-0.435,2.15-0.652,3.252-0.652s2.204,0.217,3.253,0.652c0.001,0,0.001,0,0.001,0
		c2.097,0.87,3.73,2.503,4.599,4.6C175.439,468.685,175.439,470.995,174.57,473.093z M352.135,466.587
		c0.869,2.097,0.869,4.408,0,6.505c-0.869,2.098-2.503,3.731-4.601,4.6c-4.331,1.793-9.311-0.27-11.105-4.601
		c-0.869-2.097-0.869-4.408,0-6.505c0.868-2.097,2.501-3.73,4.598-4.6c0,0,0.001,0,0.002-0.001c2.098-0.869,4.409-0.869,6.505,0
		C349.633,462.856,351.267,464.49,352.135,466.587z M466.587,336.43c1.049-0.435,2.15-0.652,3.252-0.652s2.204,0.217,3.253,0.652
		c2.098,0.869,3.731,2.502,4.6,4.6c0.869,2.098,0.869,4.408,0,6.506c-0.869,2.097-2.502,3.731-4.6,4.6
		c-2.097,0.868-4.407,0.869-6.505,0c-2.098-0.869-3.731-2.503-4.6-4.601c-0.869-2.098-0.869-4.408,0-6.505v0c0,0,0,0,0,0
		C462.856,338.932,464.49,337.298,466.587,336.43z M255.5,432C158.178,432,79,352.822,79,255.5S158.178,79,255.5,79
		S432,158.178,432,255.5S352.822,432,255.5,432z M487.5,247c4.687,0,8.5,3.813,8.5,8.5s-3.813,8.5-8.5,8.5s-8.5-3.813-8.5-8.5
		S482.813,247,487.5,247z M413.538,85.441c1.605-1.605,3.74-2.49,6.011-2.49s4.405,0.884,6.01,2.489
		c1.605,1.605,2.49,3.74,2.49,6.011s-0.884,4.405-2.49,6.011c-1.605,1.605-3.739,2.489-6.01,2.489s-4.405-0.884-6.011-2.489
		C410.224,94.147,410.224,88.755,413.538,85.441z M255.5,15c4.687,0,8.5,3.813,8.5,8.5s-3.813,8.5-8.5,8.5s-8.5-3.813-8.5-8.5
		S250.813,15,255.5,15z M85.441,97.461c-1.605-1.605-2.49-3.74-2.49-6.01s0.884-4.405,2.49-6.011c1.605-1.605,3.74-2.489,6.01-2.489
		s4.405,0.884,6.01,2.489c3.314,3.314,3.314,8.707,0,12.021c-1.605,1.605-3.74,2.489-6.011,2.489S87.046,99.067,85.441,97.461z
		 M23.5,264c-4.687,0-8.5-3.813-8.5-8.5s3.813-8.5,8.5-8.5s8.5,3.813,8.5,8.5S28.187,264,23.5,264z M97.462,425.559
		c-1.605,1.605-3.74,2.49-6.011,2.49s-4.405-0.884-6.01-2.489c-1.605-1.605-2.49-3.74-2.49-6.011s0.884-4.405,2.49-6.011
		c1.605-1.605,3.739-2.489,6.01-2.489s4.405,0.884,6.011,2.489C100.776,416.853,100.776,422.245,97.462,425.559z M255.5,496
		c-4.687,0-8.5-3.813-8.5-8.5s3.813-8.5,8.5-8.5s8.5,3.813,8.5,8.5S260.187,496,255.5,496z M425.559,413.539
		c1.605,1.605,2.49,3.74,2.49,6.01s-0.884,4.405-2.49,6.011c-1.605,1.605-3.74,2.489-6.01,2.489s-4.405-0.884-6.01-2.489
		c-3.314-3.314-3.314-8.707,0-12.021c1.605-1.605,3.74-2.489,6.011-2.489S423.954,411.933,425.559,413.539z"/>
	<path d="M402.919,316.37C410.696,297.604,415,277.046,415,255.5s-4.304-42.104-12.081-60.87c-0.022-0.056-0.037-0.112-0.06-0.168
		c-0.019-0.047-0.044-0.09-0.065-0.137c-7.952-19.074-19.503-36.283-33.804-50.778c-0.215-0.289-0.445-0.569-0.707-0.831
		c-0.262-0.262-0.543-0.492-0.831-0.708c-14.495-14.3-31.704-25.852-50.778-33.803c-0.046-0.021-0.089-0.045-0.136-0.065
		c-0.056-0.023-0.112-0.039-0.168-0.06C297.603,100.304,277.046,96,255.5,96c-21.546,0-42.104,4.304-60.87,12.082
		c-0.056,0.021-0.112,0.037-0.168,0.06c-0.047,0.02-0.09,0.044-0.136,0.065c-19.074,7.951-36.284,19.503-50.778,33.804
		c-0.288,0.215-0.569,0.445-0.831,0.707c-0.262,0.262-0.492,0.542-0.707,0.831c-14.3,14.495-25.852,31.704-33.804,50.778
		c-0.02,0.047-0.045,0.09-0.065,0.137c-0.023,0.056-0.038,0.112-0.06,0.168C100.304,213.396,96,233.954,96,255.5
		s4.304,42.104,12.081,60.87c0.021,0.056,0.037,0.112,0.06,0.168c0.013,0.032,0.033,0.06,0.047,0.092
		c7.952,19.092,19.511,36.317,33.822,50.823c0.215,0.289,0.445,0.569,0.707,0.831c0.262,0.262,0.543,0.492,0.831,0.708
		c14.495,14.3,31.704,25.852,50.778,33.803c0.046,0.021,0.089,0.045,0.136,0.065c0.057,0.023,0.115,0.04,0.172,0.061
		C213.399,410.697,233.955,415,255.5,415s42.101-4.303,60.867-12.08c0.057-0.021,0.115-0.038,0.172-0.061
		c0.047-0.02,0.09-0.044,0.136-0.065c19.074-7.951,36.283-19.503,50.778-33.803c0.288-0.215,0.569-0.445,0.831-0.708
		c0.262-0.262,0.492-0.542,0.707-0.831c14.311-14.506,25.87-31.731,33.822-50.823c0.014-0.032,0.033-0.06,0.047-0.092
		C402.882,316.482,402.897,316.426,402.919,316.37z M362.792,352.186l-68.843-68.843c0.701-0.965,1.37-1.954,1.998-2.971
		l89.99,37.275C379.894,330.278,372.071,341.899,362.792,352.186z M317.647,385.937l-37.275-89.99
		c1.017-0.628,2.006-1.297,2.971-1.998l68.843,68.843C341.899,372.07,330.278,379.895,317.647,385.937z M158.814,362.792
		l68.843-68.843c0.965,0.701,1.954,1.37,2.971,1.998l-37.275,89.99C180.722,379.895,169.101,372.07,158.814,362.792z
		 M125.063,317.647l89.99-37.275c0.628,1.018,1.297,2.006,1.998,2.971l-68.843,68.843
		C138.929,341.899,131.106,330.278,125.063,317.647z M119.31,207.206l89.994,37.277c-0.276,1.158-0.517,2.329-0.706,3.517h-97.405
		C111.925,233.764,114.735,220.07,119.31,207.206z M148.208,158.814l68.843,68.843c-0.701,0.965-1.37,1.954-1.998,2.971
		l-89.99-37.275C131.106,180.722,138.929,169.101,148.208,158.814z M193.353,125.063l37.275,89.99
		c-1.017,0.628-2.006,1.297-2.971,1.998l-68.843-68.843C169.101,138.93,180.722,131.105,193.353,125.063z M352.186,148.208
		l-68.843,68.843c-0.965-0.701-1.954-1.37-2.971-1.998l37.275-89.99C330.278,131.105,341.899,138.93,352.186,148.208z
		 M385.937,193.353l-89.99,37.275c-0.628-1.018-1.297-2.006-1.998-2.971l68.843-68.843
		C372.071,169.101,379.894,180.722,385.937,193.353z M399.807,248h-97.405c-0.189-1.188-0.43-2.359-0.706-3.517l89.994-37.277
		C396.265,220.07,399.075,233.764,399.807,248z M255.5,288c-17.92,0-32.5-14.579-32.5-32.5s14.58-32.5,32.5-32.5
		s32.5,14.579,32.5,32.5S273.42,288,255.5,288z M266.517,209.304c-1.158-0.276-2.328-0.517-3.517-0.706v-97.404
		c14.236,0.731,27.93,3.541,40.794,8.117L266.517,209.304z M248,208.598c-1.188,0.189-2.359,0.43-3.517,0.706l-37.277-89.994
		c12.864-4.576,26.558-7.385,40.794-8.117V208.598z M111.193,263h97.405c0.189,1.188,0.43,2.359,0.706,3.517l-89.994,37.277
		C114.735,290.93,111.925,277.236,111.193,263z M244.483,301.696c1.158,0.276,2.328,0.517,3.517,0.706v97.404
		c-14.236-0.731-27.93-3.541-40.794-8.117L244.483,301.696z M263,302.402c1.188-0.189,2.359-0.43,3.517-0.706l37.277,89.994
		c-12.864,4.576-26.558,7.385-40.794,8.117V302.402z M301.696,266.517c0.276-1.158,0.517-2.329,0.706-3.517h97.405
		c-0.731,14.236-3.541,27.93-8.117,40.794L301.696,266.517z"/>
	<path d="M255.52,248h-0.01c-4.142,0-7.495,3.358-7.495,7.5s3.363,7.5,7.505,7.5s7.5-3.358,7.5-7.5S259.662,248,255.52,248z"/>
</g>
<g>
</g>
<g>
</g>
<g>
</g>
<g>
</g>
<g>
</g>
<g>
</g>
<g>
</g>
<g>
</g>
<g>
</g>
<g>
</g>
<g>
</g>
<g>
</g>
<g>
</g>
<g>
</g>
<g>
</g>
</svg>
